Format : AVI
Format/Info : Audio Video Interleave
File size : 699 MiB
Duration : 1h 31mn
Overall bit rate : 1 074 Kbps
Writing application : VirtualDubMod 1.5.4.1 (build 2178/release)
Writing library : VirtualDubMod build 2178/release

Video
ID : 0
Format : MPEG-4 Visual
Format settings, BVOP : Yes
Format settings, QPel : No
Format settings, GMC : No warppoints
Format settings, Matrix : Default (H.263)
Muxing mode : Packed bitstream
Codec ID : DX50
Codec ID/Hint : DivX 5
Duration : 1h 31mn
Bit rate : 939 Kbps
Width : 720 pixels
Height : 400 pixels
Display aspect ratio : 16:9
Frame rate : 25.000 fps
Resolution : 24 bits
Colorimetry : 4:2:0
Scan type : Progressive
Bits/(Pixel*Frame) : 0.130
Stream size : 611 MiB (87%)
Writing library : DivX 6.8.4

Audio
ID : 1
Format : MPEG Audio
Format version : Version 1
Format profile : Layer 3
Codec ID : 55
Codec ID/Hint : MP3
Duration : 1h 31mn
Bit rate mode : Constant
Bit rate : 128 Kbps
Channel(s) : 2 channels
Sampling rate : 48.0 KHz
Resolution : 16 bits
Stream size : 83.3 MiB (12%)
Alignment : Aligned on interleaves
Interleave, duration : 80 ms (2.00 video frames)
Interleave, preload duration : 504 ms
Writing library : LAME3.98r
Encoding settings : -m j -V 4 -q 2 -lowpass 17 -b 128
Language : English

Starring
John C. Reilly
Jonah Hill
Marisa Tomei
Catherine Keener
Matt Walsh

John is seven years divorced from his wife and is having trouble adjusting to his new life. After meeting Molly at a party, he thinks that maybe he has found the perfect person again. There's just one problem: Cyrus, Molly's grown son. John must find a way to make his romance with Molly work despite intentional and unintentional interference by Cyrus.
 
http://www.imdb.com/title/tt1336617/

screens
 
http://img29.imageshack.us/img29/6355/cyrusdivxviceavisnapsho.jpg 
http://img818.imageshack.us/img818/6355/cyrusdivxviceavisnapsho.jpg 
http://img191.imageshack.us/img191/6355/cyrusdivxviceavisnapsho.jpg 
http://img221.imageshack.us/img221/6355/cyrusdivxviceavisnapsho.jpg